<svg xmlns="http://www.w3.org/2000/svg" viewBox="0 0 32 32"><defs><style>.cls-1{fill:#4b0145;}.cls-2,.cls-3{fill:none;stroke:#fff;}.cls-2,.cls-3,.cls-4{stroke-miterlimit:10;}.cls-2{stroke-width:2px;}.cls-3{stroke-width:1.5px;}.cls-4{fill:#f8c23a;stroke:#f8c23a;}</style></defs><g id="version3"><rect class="cls-1" width="32" height="32"/><polyline class="cls-2" points="-5 27 3 19 8 19 10.5 16.5"/><circle class="cls-3" cx="27.5" cy="6.5" r="1.5"/><polyline class="cls-2" points="26.79 5.79 24 3 14.31 3 10.66 -0.66"/><circle class="cls-3" cx="26.5" cy="16.5" r="1.5"/><circle class="cls-3" cx="11.5" cy="15.5" r="1.5"/><circle class="cls-3" cx="16.5" cy="29.5" r="1.5"/><polyline class="cls-2" points="51.5 12.5 44.47 12.5 42.98 13.98 28.93 13.98 27.5 15.5"/><polyline class="cls-2" points="17.21 28.8 20.12 25.89 27.88 25.89 32.89 20.89"/><path class="cls-4" d="M11.82,21.13l1.28-1.22A4.1,4.1,0,0,0,16.48,22c2.23,0,3.24-1.12,3.24-3.72V9.4H13.14V7.69h8.62V18.42c0,2.93-1.32,5.33-5.23,5.33A5.46,5.46,0,0,1,11.82,21.13Z"/><circle class="cls-3" cx="5.79" cy="9.48" r="1.5"/><polyline class="cls-2" points="5.11 8.75 2.82 6.45 -2.15 6.45"/></g></svg>